<?xml version="1.0" encoding="utf-8"?>
<!-- Generator: Adobe Illustrator 27.5.0, SVG Export Plug-In . SVG Version: 6.00 Build 0)  -->
<svg version="1.1" xmlns="http://www.w3.org/2000/svg" xmlns:xlink="http://www.w3.org/1999/xlink" x="0px" y="0px"
	 viewBox="0 0 2200 2200" style="enable-background:new 0 0 2200 2200;" xml:space="preserve">
<g id="background">
	<rect style="fill:#FFFFFF;" width="2200" height="2200"/>
</g>
<g id="Objects">
	<g>
		<g>
			<g>
				<g>
					<polygon style="fill:#45B2EF;" points="1044.401,607.607 646.321,1047.457 248.251,607.607 432.171,425.897 860.491,425.897 
											"/>
				</g>
				<g>
					<polygon style="fill:#45B2EF;" points="1044.401,607.607 646.321,1047.457 248.251,607.607 432.171,425.897 860.491,425.897 
											"/>
				</g>
			</g>
			<polygon style="fill:#45B2EF;" points="459.521,607.607 248.251,607.607 432.171,425.897 			"/>
			<polygon style="fill:#3B9FE2;" points="646.323,1047.459 248.249,607.611 459.518,607.611 			"/>
			<polygon style="fill:#45B2EF;" points="646.323,1047.459 459.518,607.611 833.128,607.611 			"/>
			<polygon style="fill:#80D4FD;" points="833.131,607.607 459.521,607.607 646.321,425.897 			"/>
			<polygon style="fill:#45B2EF;" points="1044.401,607.607 833.131,607.607 860.491,425.897 			"/>
			<polygon style="fill:#3B9FE2;" points="1044.398,607.611 646.323,1047.459 833.128,607.611 			"/>
			<polygon style="fill:#4FC1F8;" points="646.321,425.897 459.521,607.607 432.171,425.897 			"/>
			<polygon style="fill:#4FC1F8;" points="860.491,425.897 833.131,607.607 646.321,425.897 			"/>
		</g>
		<path style="fill:#4FC1F8;" d="M646.321,323.419c-5.522,0-10-4.477-10-10v-74.431c0-5.523,4.478-10,10-10s10,4.477,10,10v74.431
			C656.321,318.942,651.844,323.419,646.321,323.419z"/>
		<path style="fill:#4FC1F8;" d="M535.423,362.285c-3.146,0-6.243-1.48-8.189-4.25l-42.804-60.893
			c-3.177-4.519-2.088-10.756,2.43-13.932c4.52-3.176,10.757-2.087,13.932,2.43l42.804,60.893c3.177,4.519,2.088,10.756-2.43,13.932
			C539.416,361.694,537.409,362.285,535.423,362.285z"/>
		<path style="fill:#4FC1F8;" d="M757.22,362.285c-1.986,0-3.993-0.59-5.742-1.82c-4.518-3.176-5.606-9.414-2.43-13.932
			l42.803-60.893c3.176-4.518,9.412-5.607,13.932-2.431c4.518,3.176,5.606,9.414,2.43,13.932l-42.803,60.893
			C763.463,360.804,760.366,362.285,757.22,362.285z"/>
	</g>
	<g>
		<path style="fill:#4FC1F8;" d="M1958.779,600.494l-183.91-181.709c-1.872-1.85-4.397-2.887-7.028-2.887h-428.32
			c-2.631,0-5.156,1.037-7.028,2.886l-183.92,181.71c-3.808,3.762-3.978,9.855-0.386,13.824l398.07,439.85
			c1.896,2.094,4.589,3.29,7.414,3.29s5.519-1.195,7.414-3.29l398.08-439.85C1962.757,610.349,1962.587,604.256,1958.779,600.494z
			 M1725.367,617.611l-171.693,404.267l-171.694-404.267H1725.367z M1391.489,597.611l162.182-157.763l162.192,157.763H1391.489z
			 M1733.493,586.859l-155.199-150.962h177.928L1733.493,586.859z M1373.86,586.857l-22.722-150.96h177.911L1373.86,586.857z
			 M1355.253,597.607H1179.95l152.608-150.775L1355.253,597.607z M1360.249,617.607l161.029,379.154l-343.14-379.154H1360.249z
			 M1747.097,617.607h182.116l-343.139,379.144L1747.097,617.607z M1752.1,597.607l22.702-150.774l152.601,150.774H1752.1z"/>
		<path style="fill:#4FC1F8;" d="M1553.671,323.419c5.522,0,10-4.477,10-10v-74.431c0-5.523-4.478-10-10-10s-10,4.477-10,10v74.431
			C1543.671,318.942,1548.148,323.419,1553.671,323.419z"/>
		<path style="fill:#4FC1F8;" d="M1434.583,358.034c1.946,2.77,5.043,4.25,8.189,4.25c1.986,0,3.993-0.591,5.742-1.82
			c4.518-3.176,5.606-9.414,2.43-13.932l-42.803-60.893c-3.175-4.518-9.411-5.607-13.932-2.431
			c-4.518,3.176-5.606,9.414-2.43,13.932L1434.583,358.034z"/>
		<path style="fill:#4FC1F8;" d="M1658.827,360.465c1.749,1.229,3.756,1.82,5.742,1.82c3.146,0,6.243-1.481,8.189-4.25
			l42.803-60.893c3.177-4.518,2.088-10.755-2.43-13.932c-4.52-3.177-10.756-2.087-13.932,2.431l-42.803,60.893
			C1653.221,351.051,1654.31,357.289,1658.827,360.465z"/>
	</g>
	<g>
		<polygon style="fill:#45B2EF;" points="1044.401,1521.16 646.321,1961.01 248.251,1521.16 432.171,1339.45 860.491,1339.45 		"/>
		<polygon style="fill:#77E0D5;" points="459.521,1521.16 248.251,1521.16 432.171,1339.45 		"/>
		<polygon style="fill:#66C4B8;" points="646.323,1961.011 248.249,1521.164 459.518,1521.164 		"/>
		<polygon style="fill:#77E0D5;" points="646.323,1961.011 459.518,1521.164 833.128,1521.164 		"/>
		<polygon style="fill:#94FFFA;" points="833.131,1521.16 459.521,1521.16 646.321,1339.45 		"/>
		<polygon style="fill:#77E0D5;" points="1044.401,1521.16 833.131,1521.16 860.491,1339.45 		"/>
		<polygon style="fill:#66C4B8;" points="1044.398,1521.164 646.323,1961.011 833.128,1521.164 		"/>
		<polygon style="fill:#7FEFE7;" points="646.321,1339.45 459.521,1521.16 432.171,1339.45 		"/>
		<polygon style="fill:#7FEFE7;" points="860.491,1339.45 833.131,1521.16 646.321,1339.45 		"/>
		<path style="fill:#77E0D5;" d="M646.321,1236.972c-5.522,0-10-4.478-10-10v-74.431c0-5.522,4.478-10,10-10s10,4.478,10,10v74.431
			C656.321,1232.494,651.844,1236.972,646.321,1236.972z"/>
		<path style="fill:#77E0D5;" d="M535.423,1275.837c-3.146,0-6.243-1.48-8.189-4.25l-42.804-60.893
			c-3.177-4.519-2.088-10.756,2.43-13.932c4.52-3.177,10.757-2.088,13.932,2.43l42.804,60.893c3.177,4.519,2.088,10.756-2.43,13.932
			C539.416,1275.246,537.409,1275.837,535.423,1275.837z"/>
		<path style="fill:#77E0D5;" d="M757.22,1275.837c-1.986,0-3.993-0.591-5.742-1.82c-4.518-3.176-5.606-9.413-2.43-13.932
			l42.803-60.893c3.176-4.516,9.412-5.605,13.932-2.43c4.518,3.176,5.606,9.413,2.43,13.932l-42.803,60.893
			C763.463,1274.355,760.366,1275.837,757.22,1275.837z"/>
	</g>
	<g>
		<path style="fill:#1A2326;" d="M1958.779,1514.047l-183.91-181.71c-1.872-1.85-4.397-2.887-7.028-2.887h-428.32
			c-2.631,0-5.156,1.037-7.028,2.887l-183.92,181.71c-3.808,3.762-3.978,9.854-0.386,13.823l398.07,439.85
			c1.896,2.095,4.589,3.29,7.414,3.29s5.519-1.195,7.414-3.29l398.08-439.85C1962.757,1523.901,1962.587,1517.809,1958.779,1514.047
			z M1725.367,1531.164l-171.693,404.267l-171.694-404.267H1725.367z M1391.489,1511.164l162.183-157.763l162.192,157.763H1391.489z
			 M1733.493,1500.412l-155.2-150.962h177.929L1733.493,1500.412z M1373.86,1500.41l-22.722-150.96h177.911L1373.86,1500.41z
			 M1355.253,1511.16H1179.95l152.608-150.775L1355.253,1511.16z M1360.249,1531.16l161.029,379.155l-343.141-379.155H1360.249z
			 M1747.097,1531.16h182.116l-343.14,379.145L1747.097,1531.16z M1752.1,1511.16l22.701-150.774l152.6,150.774H1752.1z"/>
		<path style="fill:#1A2326;" d="M1553.671,1236.972c5.522,0,10-4.478,10-10v-74.431c0-5.522-4.478-10-10-10s-10,4.478-10,10v74.431
			C1543.671,1232.494,1548.148,1236.972,1553.671,1236.972z"/>
		<path style="fill:#1A2326;" d="M1434.583,1271.587c1.946,2.77,5.043,4.25,8.189,4.25c1.986,0,3.993-0.591,5.742-1.82
			c4.518-3.176,5.606-9.413,2.43-13.932l-42.803-60.893c-3.175-4.518-9.411-5.606-13.932-2.43c-4.518,3.176-5.606,9.413-2.43,13.932
			L1434.583,1271.587z"/>
		<path style="fill:#1A2326;" d="M1658.827,1274.017c1.749,1.229,3.756,1.82,5.742,1.82c3.146,0,6.243-1.481,8.189-4.25
			l42.803-60.893c3.177-4.519,2.088-10.756-2.43-13.932c-4.52-3.176-10.756-2.086-13.932,2.43l-42.803,60.893
			C1653.221,1264.604,1654.31,1270.841,1658.827,1274.017z"/>
	</g>
</g>
</svg>
