<?xml version="1.0" encoding="utf-8"?>
<!-- Generator: Adobe Illustrator 27.5.0, SVG Export Plug-In . SVG Version: 6.00 Build 0)  -->
<svg version="1.1" xmlns="http://www.w3.org/2000/svg" xmlns:xlink="http://www.w3.org/1999/xlink" x="0px" y="0px"
	 viewBox="0 0 2200 2200" style="enable-background:new 0 0 2200 2200;" xml:space="preserve">
	<g>
		<path style="fill:#1A2326;" d="M1958.779,1514.047l-183.91-181.71c-1.872-1.85-4.397-2.887-7.028-2.887h-428.32
			c-2.631,0-5.156,1.037-7.028,2.887l-183.92,181.71c-3.808,3.762-3.978,9.854-0.386,13.823l398.07,439.85
			c1.896,2.095,4.589,3.29,7.414,3.29s5.519-1.195,7.414-3.29l398.08-439.85C1962.757,1523.901,1962.587,1517.809,1958.779,1514.047
			z M1725.367,1531.164l-171.693,404.267l-171.694-404.267H1725.367z M1391.489,1511.164l162.183-157.763l162.192,157.763H1391.489z
			 M1733.493,1500.412l-155.2-150.962h177.929L1733.493,1500.412z M1373.86,1500.41l-22.722-150.96h177.911L1373.86,1500.41z
			 M1355.253,1511.16H1179.95l152.608-150.775L1355.253,1511.16z M1360.249,1531.16l161.029,379.155l-343.141-379.155H1360.249z
			 M1747.097,1531.16h182.116l-343.14,379.145L1747.097,1531.16z M1752.1,1511.16l22.701-150.774l152.6,150.774H1752.1z"/>
		<path style="fill:#1A2326;" d="M1553.671,1236.972c5.522,0,10-4.478,10-10v-74.431c0-5.522-4.478-10-10-10s-10,4.478-10,10v74.431
			C1543.671,1232.494,1548.148,1236.972,1553.671,1236.972z"/>
		<path style="fill:#1A2326;" d="M1434.583,1271.587c1.946,2.77,5.043,4.25,8.189,4.25c1.986,0,3.993-0.591,5.742-1.82
			c4.518-3.176,5.606-9.413,2.43-13.932l-42.803-60.893c-3.175-4.518-9.411-5.606-13.932-2.43c-4.518,3.176-5.606,9.413-2.43,13.932
			L1434.583,1271.587z"/>
		<path style="fill:#1A2326;" d="M1658.827,1274.017c1.749,1.229,3.756,1.82,5.742,1.82c3.146,0,6.243-1.481,8.189-4.25
			l42.803-60.893c3.177-4.519,2.088-10.756-2.43-13.932c-4.52-3.176-10.756-2.086-13.932,2.43l-42.803,60.893
			C1653.221,1264.604,1654.31,1270.841,1658.827,1274.017z"/>
	</g>

</svg>
