<?xml version="1.0" encoding="utf-8"?>
<!-- Generator: Adobe Illustrator 27.5.0, SVG Export Plug-In . SVG Version: 6.00 Build 0)  -->
<svg version="1.1" xmlns="http://www.w3.org/2000/svg" xmlns:xlink="http://www.w3.org/1999/xlink" x="0px" y="0px"
	 viewBox="0 0 750 500" style="enable-background:new 0 0 750 500;" xml:space="preserve">
<g id="BACKGROUND">
	<radialGradient id="SVGID_1_" cx="260.7375" cy="-53.6055" r="637.2651" gradientUnits="userSpaceOnUse">
		<stop  offset="0" style="stop-color:#242A38"/>
		<stop  offset="1" style="stop-color:#06070D"/>
	</radialGradient>
	<rect style="fill:url(#SVGID_1_);" width="750" height="500"/>
</g>
<g id="OBJECTS">
	<g>
		<g>
			<defs>
				<rect id="SVGID_00000088120256655075023770000002694062552946942608_" width="750" height="500"/>
			</defs>
			<clipPath id="SVGID_00000121238520491798788040000006901055479193406135_">
				<use xlink:href="#SVGID_00000088120256655075023770000002694062552946942608_"  style="overflow:visible;"/>
			</clipPath>
			
				<linearGradient id="SVGID_00000129166741765825976710000005061931967660475538_" gradientUnits="userSpaceOnUse" x1="180.0059" y1="293.5245" x2="259.0242" y2="371.2256">
				<stop  offset="0.0025" style="stop-color:#08090F"/>
				<stop  offset="1" style="stop-color:#06070D;stop-opacity:0"/>
			</linearGradient>
			
				<path style="clip-path:url(#SVGID_00000121238520491798788040000006901055479193406135_);fill:url(#SVGID_00000129166741765825976710000005061931967660475538_);" d="
				M186.262,440.234c3.756-2.059,7.459-4.214,11.105-6.462c21.224-13.09,38.796-29.802,56.758-46.882
				c26.626-25.317,57.269-51.832,95.088-56.969c19.692-2.675,39.452,0.6,58.408,5.983c19.801,5.623,25.929,7.445,36.811-11.648
				c17.689-31.039,20.005-70.763,4.766-103.237c-15.111-32.201-49.607-59.413-85.697-62.831
				c-16.809-1.592-36.363,12.34-51.752,18.504c-22.971,9.199-45.744,18.893-68.297,29.074
				C152.67,246.747,62.714,297.906,2.94,377.577c-11.99,15.981-23.07,34.526-21.732,54.463
				c2.347,34.963,46.629,40.058,74.143,40.092c24.363,0.03,50.342-2.743,73.839-9.031
				C149.031,457.792,168.254,450.116,186.262,440.234z"/>
			
				<linearGradient id="SVGID_00000087397356864508179930000011654732247537134004_" gradientUnits="userSpaceOnUse" x1="690.6508" y1="189.8814" x2="738.5555" y2="228.8966">
				<stop  offset="0.0025" style="stop-color:#08090F"/>
				<stop  offset="1" style="stop-color:#06070D;stop-opacity:0"/>
			</linearGradient>
			
				<path style="clip-path:url(#SVGID_00000121238520491798788040000006901055479193406135_);fill:url(#SVGID_00000087397356864508179930000011654732247537134004_);" d="
				M496.65,324.666c5.965,15.703,18.74,36.773,35.302,42.858c16.814,6.178,45.482-8.574,60.344-15.959
				c24.52-12.183,47.087-28.205,67.017-46.978c16.645-15.679,31.476-33.27,48.891-48.09
				c45.262-38.518,104.912-55.771,163.696-64.535c17.94-2.675,36.237-4.724,52.994-11.664c16.758-6.94,32.14-19.72,37.327-37.101
				c6.635-22.233-5.372-46.885-23.877-60.882c-18.505-13.997-42.176-19.188-65.255-21.578c-40.955-4.24-82.31-0.818-123.193,4.066
				c-6.282,0.75-13.036,0.059-19.141,1.089c-7.578,1.278-15.612,6.581-22.367,10.079c-14.643,7.583-28.813,16.094-43.879,22.844
				c-17.218,7.714-35.399,13.054-52.874,20.169c-21.491,8.75-41.849,20.165-60.976,33.303c-11.602,7.97-22.856,16.665-31.981,27.382
				c-8.26,9.702-14.618,20.877-20.217,32.322c-3.804,7.776-7.303,15.772-9.213,24.215c-2.277,10.071-2.236,20.51-1.896,30.83
				c0.632,19.206,2.317,38.659,8.948,56.696C496.414,324.04,496.531,324.352,496.65,324.666z"/>
			
				<linearGradient id="SVGID_00000066486254234108186490000008373600843083798684_" gradientUnits="userSpaceOnUse" x1="180.0059" y1="293.5245" x2="259.0242" y2="371.2256">
				<stop  offset="0.0025" style="stop-color:#08090F"/>
				<stop  offset="1" style="stop-color:#06070D;stop-opacity:0"/>
			</linearGradient>
			
				<path style="clip-path:url(#SVGID_00000121238520491798788040000006901055479193406135_);fill:url(#SVGID_00000066486254234108186490000008373600843083798684_);" d="
				M186.262,440.234c3.756-2.059,7.459-4.214,11.105-6.462c21.224-13.09,38.796-29.802,56.758-46.882
				c26.626-25.317,57.269-51.832,95.088-56.969c19.692-2.675,39.452,0.6,58.408,5.983c19.801,5.623,25.929,7.445,36.811-11.648
				c17.689-31.039,20.005-70.763,4.766-103.237c-15.111-32.201-49.607-59.413-85.697-62.831
				c-16.809-1.592-36.363,12.34-51.752,18.504c-22.971,9.199-45.744,18.893-68.297,29.074
				C152.67,246.747,62.714,297.906,2.94,377.577c-11.99,15.981-23.07,34.526-21.732,54.463
				c2.347,34.963,46.629,40.058,74.143,40.092c24.363,0.03,50.342-2.743,73.839-9.031
				C149.031,457.792,168.254,450.116,186.262,440.234z"/>
			
				<linearGradient id="SVGID_00000017483009279549693560000002985181632036016012_" gradientUnits="userSpaceOnUse" x1="690.6508" y1="189.8814" x2="738.5555" y2="228.8966">
				<stop  offset="0.0025" style="stop-color:#08090F"/>
				<stop  offset="1" style="stop-color:#06070D;stop-opacity:0"/>
			</linearGradient>
			
				<path style="clip-path:url(#SVGID_00000121238520491798788040000006901055479193406135_);fill:url(#SVGID_00000017483009279549693560000002985181632036016012_);" d="
				M496.65,324.666c5.965,15.703,18.74,36.773,35.302,42.858c16.814,6.178,45.482-8.574,60.344-15.959
				c24.52-12.183,47.087-28.205,67.017-46.978c16.645-15.679,31.476-33.27,48.891-48.09
				c45.262-38.518,104.912-55.771,163.696-64.535c17.94-2.675,36.237-4.724,52.994-11.664c16.758-6.94,32.14-19.72,37.327-37.101
				c6.635-22.233-5.372-46.885-23.877-60.882c-18.505-13.997-42.176-19.188-65.255-21.578c-40.955-4.24-82.31-0.818-123.193,4.066
				c-6.282,0.75-13.036,0.059-19.141,1.089c-7.578,1.278-15.612,6.581-22.367,10.079c-14.643,7.583-28.813,16.094-43.879,22.844
				c-17.218,7.714-35.399,13.054-52.874,20.169c-21.491,8.75-41.849,20.165-60.976,33.303c-11.602,7.97-22.856,16.665-31.981,27.382
				c-8.26,9.702-14.618,20.877-20.217,32.322c-3.804,7.776-7.303,15.772-9.213,24.215c-2.277,10.071-2.236,20.51-1.896,30.83
				c0.632,19.206,2.317,38.659,8.948,56.696C496.414,324.04,496.531,324.352,496.65,324.666z"/>
			
				<radialGradient id="SVGID_00000080910983763819351200000018315294738132433564_" cx="410.1262" cy="453.9852" r="565.3303" gradientUnits="userSpaceOnUse">
				<stop  offset="0" style="stop-color:#242A38"/>
				<stop  offset="1" style="stop-color:#06070D"/>
			</radialGradient>
			
				<path style="clip-path:url(#SVGID_00000121238520491798788040000006901055479193406135_);fill:url(#SVGID_00000080910983763819351200000018315294738132433564_);" d="
				M864.954-9.589c-6.989-7.856-17.166-12.001-27.126-15.373C767.235-48.862,690.82-46.436,616.34-43.744
				C465.226-38.283,314.113-32.822,163-27.361C111.937-25.516,58.507-23.014,14.367,2.725
				c-44.535,25.971-73.779,73.027-88.103,122.552c-14.324,49.525-15.276,101.847-14.372,153.394
				c0.728,41.502,2.765,83.861,17.713,122.584c19.707,51.052,66.286,77.241,120.058,68.115
				c64.766-10.992,109.72-62.458,153.814-106.611c25.326-25.36,53.345-51.749,87.087-65.322
				c46.663-18.771,79.089,13.335,110.337,43.553c37.094,35.872,81.701,56.088,133.771,41.207
				c57.115-16.323,92.452-69.699,121.873-117.494c34.544-56.117,86.296-92.72,138.904-130.772
				C832.835,106.89,911.381,42.594,864.954-9.589z"/>
			
				<linearGradient id="SVGID_00000093866133394911828340000018160908950860391833_" gradientUnits="userSpaceOnUse" x1="213.8558" y1="213.986" x2="535.8547" y2="211.0228">
				<stop  offset="0" style="stop-color:#C19966"/>
				<stop  offset="0.116" style="stop-color:#CD995B"/>
				<stop  offset="0.3329" style="stop-color:#DC994B"/>
				<stop  offset="0.5025" style="stop-color:#E29946"/>
				<stop  offset="0.5184" style="stop-color:#E5A354"/>
				<stop  offset="0.5664" style="stop-color:#ECBE78"/>
				<stop  offset="0.6112" style="stop-color:#F1D292"/>
				<stop  offset="0.6513" style="stop-color:#F4DEA2"/>
				<stop  offset="0.6825" style="stop-color:#F5E2A8"/>
				<stop  offset="0.87" style="stop-color:#E29946"/>
			</linearGradient>
			
				<path style="clip-path:url(#SVGID_00000121238520491798788040000006901055479193406135_);fill:url(#SVGID_00000093866133394911828340000018160908950860391833_);" d="
				M864.563-9.241c-2.198-2.449-4.729-4.602-7.477-6.439c-2.756-1.827-5.688-3.398-8.722-4.751
				c-3.033-1.356-6.145-2.546-9.295-3.639c-3.155-1.082-6.354-2.038-9.53-3.063l-4.772-1.513c-1.602-0.467-3.219-0.882-4.828-1.325
				c-3.225-0.86-6.436-1.776-9.672-2.59c-6.512-1.468-12.996-3.083-19.583-4.199c-6.547-1.327-13.167-2.227-19.766-3.25
				c-3.309-0.448-6.629-0.813-9.943-1.223l-4.974-0.59l-4.988-0.459c-13.292-1.339-26.645-1.985-39.996-2.412L701-44.936
				l-10.02-0.081c-3.34-0.042-6.681-0.027-10.021,0.004l-10.021,0.085c-13.361,0.196-26.72,0.589-40.078,1.041l-80.145,2.919
				l-320.58,11.726l-80.141,2.963c-26.67,1.134-53.438,2.897-79.522,8.616c-13.021,2.853-25.824,6.767-38.047,12.06
				c-3.047,1.338-6.026,2.827-9.042,4.232c-2.937,1.562-5.849,3.174-8.765,4.774c-2.809,1.782-5.65,3.514-8.432,5.334
				c-2.689,1.958-5.44,3.833-8.077,5.858c-21.086,16.31-37.931,37.659-50.583,61.04c-6.339,11.708-11.663,23.96-16.022,36.54
				c-4.361,12.581-7.719,25.504-10.343,38.565c-5.245,26.145-7.394,52.833-8.082,79.501c-0.334,13.342-0.318,26.696-0.148,40.051
				c0.186,13.357,0.454,26.712,1.129,40.036c0.378,6.659,0.773,13.317,1.419,19.951c0.267,3.323,0.683,6.628,1.03,9.941
				c0.431,3.302,0.842,6.608,1.355,9.896c2.044,13.149,4.768,26.216,8.912,38.841l1.564,4.727l1.736,4.664l0.867,2.332l0.953,2.288
				l0.954,2.286l1.039,2.248c2.775,5.99,6.026,11.753,9.758,17.179c7.497,10.818,16.954,20.266,27.934,27.388
				c10.94,7.176,23.346,11.988,36.159,14.256c12.819,2.289,26.021,2.173,38.825-0.09c6.402-1.155,12.773-2.641,18.965-4.654
				c31.665-10.29,56.102-30.209,79.456-53.126c29.629-29.075,55.266-62.108,86.707-89.355
				c23.637-20.484,52.622-39.404,84.576-42.157c33.253-2.864,63.408,18.03,86.122,40.127c23.169,22.54,47.248,45.121,80.081,52.013
				c31.556,6.625,65.052-3.814,91.171-21.615c34.494-23.508,56.166-58.859,81.361-91.088c25.425-32.524,56.041-60.584,88.424-86.033
				c32.22-25.32,68.361-46.171,97.316-75.4c9.373-9.461,18.081-19.657,25.126-30.943c3.49-5.652,6.536-11.588,8.822-17.811
				c2.265-6.221,3.717-12.762,3.887-19.371c0.187-6.602-0.983-13.231-3.458-19.359C872.687,1.31,868.92-4.253,864.563-9.241z
				 M865.345-9.937c4.425,5.058,8.266,10.719,10.757,17.007c2.533,6.257,3.735,13.043,3.547,19.782
				c-0.169,6.747-1.646,13.404-3.939,19.714c-2.31,6.315-5.404,12.308-8.928,18.007c-7.118,11.378-15.884,21.615-25.304,31.105
				c-9.436,9.495-19.567,18.269-30.065,26.553c-10.485,8.314-21.489,15.923-32.276,23.808
				c-36.744,26.859-72.24,55.987-101.44,91.111c-26.035,31.317-45.297,67.564-73.018,97.629
				c-26.661,28.916-60.453,50.807-100.785,52.108c-36.892,1.189-68.67-14.837-96.199-38.142
				c-20.382-17.255-36.26-37.873-60.922-49.712c-28.49-13.677-58.977-2.214-83.557,13.72
				c-30.092,19.508-55.735,45.527-80.176,71.519c-27.29,29.021-60.504,58.701-97.475,74.52c-6.146,2.641-12.446,4.926-18.865,6.809
				c-6.418,1.894-12.98,3.272-19.589,4.293c-13.226,1.964-26.799,1.896-39.94-0.695c-13.142-2.546-25.756-7.763-36.876-15.213
				c-11.152-7.426-20.673-17.193-28.169-28.273c-3.754-5.542-7.012-11.415-9.782-17.506l-1.037-2.286l-0.951-2.323l-0.948-2.324
				l-0.858-2.357l-1.716-4.715l-1.542-4.774c-4.096-12.743-6.826-25.884-8.832-39.102c-1.99-13.23-3.073-26.576-3.801-39.925
				c-0.681-13.355-0.955-26.724-1.146-40.09c-0.179-13.367-0.194-26.74,0.155-40.107c0.708-26.719,2.88-53.485,8.165-79.731
				c2.645-13.112,6.042-26.085,10.441-38.726c4.399-12.637,9.768-24.944,16.157-36.706c12.754-23.489,29.73-44.948,50.987-61.342
				c2.658-2.036,5.432-3.92,8.142-5.887c2.804-1.83,5.668-3.571,8.5-5.36c2.938-1.607,5.872-3.226,8.831-4.795
				c3.037-1.411,6.038-2.904,9.106-4.246c12.305-5.312,25.181-9.21,38.251-12.084c26.188-5.743,53.013-7.508,79.701-8.644
				l80.146-2.968l320.584-11.61l80.148-2.884c13.361-0.446,26.726-0.833,40.096-1.023l10.029-0.08c3.343-0.03,6.686-0.043,10.03,0
				l10.03,0.085l10.029,0.246c13.366,0.436,26.737,1.081,40.052,2.424l4.996,0.46l4.983,0.592c3.32,0.412,6.646,0.777,9.961,1.227
				c6.612,1.025,13.245,1.927,19.806,3.257c6.599,1.127,13.104,2.717,19.636,4.174c3.247,0.808,6.469,1.717,9.705,2.57
				c1.615,0.44,3.237,0.852,4.845,1.315l4.79,1.505c3.188,1.02,6.397,1.969,9.569,3.047c3.168,1.089,6.31,2.28,9.384,3.645
				c3.074,1.361,6.061,2.949,8.882,4.809C860.464-14.66,863.072-12.457,865.345-9.937z"/>
			<g style="clip-path:url(#SVGID_00000121238520491798788040000006901055479193406135_);">
				
					<linearGradient id="SVGID_00000146484567134655027820000001410783726061901737_" gradientUnits="userSpaceOnUse" x1="-89.4519" y1="216.7802" x2="881.8079" y2="207.8422">
					<stop  offset="0" style="stop-color:#C19966"/>
					<stop  offset="0.116" style="stop-color:#CD995B"/>
					<stop  offset="0.3329" style="stop-color:#DC994B"/>
					<stop  offset="0.5025" style="stop-color:#E29946"/>
					<stop  offset="0.5184" style="stop-color:#E5A354"/>
					<stop  offset="0.5664" style="stop-color:#ECBE78"/>
					<stop  offset="0.6112" style="stop-color:#F1D292"/>
					<stop  offset="0.6513" style="stop-color:#F4DEA2"/>
					<stop  offset="0.6825" style="stop-color:#F5E2A8"/>
					<stop  offset="0.87" style="stop-color:#E29946"/>
				</linearGradient>
				<path style="fill:url(#SVGID_00000146484567134655027820000001410783726061901737_);" d="M28.787,471.732
					c-7.413,0-14.667-0.694-21.704-2.082c-13.1-2.538-25.91-7.822-37.043-15.282c-10.968-7.304-20.487-16.858-28.293-28.397
					c-3.692-5.45-6.996-11.363-9.82-17.574l-1.037-2.286l-1.906-4.663l-2.581-7.088l-1.547-4.79
					c-3.701-11.512-6.596-24.325-8.85-39.174c-1.739-11.565-2.948-24.266-3.805-39.969c-0.7-13.718-0.965-27.384-1.146-40.108
					c-0.206-15.405-0.157-28.155,0.155-40.126c0.816-30.808,3.414-56.167,8.173-79.81c2.782-13.792,6.301-26.841,10.458-38.786
					c4.484-12.885,9.931-25.258,16.188-36.775c13.681-25.195,30.876-45.882,51.11-61.487c1.725-1.321,3.524-2.597,5.264-3.831
					c0.966-0.685,1.931-1.369,2.889-2.064c1.837-1.2,3.709-2.367,5.52-3.496c1.003-0.625,2.006-1.25,3.004-1.881l1.575-0.864
					c2.423-1.327,4.846-2.655,7.286-3.948c1.094-0.509,2.162-1.017,3.229-1.526c1.926-0.917,3.918-1.865,5.908-2.736
					c11.531-4.978,24.429-9.053,38.336-12.112c27.452-6.02,55.575-7.623,79.78-8.654l80.149-2.968l320.585-11.61l80.148-2.884
					c11.016-0.368,25.528-0.816,40.107-1.023l10.031-0.081c2.754-0.025,6.385-0.047,10.04,0l10.027,0.086l10.037,0.246
					c11.028,0.359,25.547,0.959,40.086,2.426l4.992,0.459l4.996,0.593c1.179,0.146,2.356,0.286,3.533,0.426
					c2.146,0.255,4.293,0.511,6.434,0.801c1.481,0.229,2.954,0.452,4.428,0.674c5.063,0.763,10.297,1.552,15.408,2.588
					c5.117,0.874,10.271,2.048,15.255,3.183c1.463,0.333,2.926,0.667,4.39,0.993c2.114,0.525,4.208,1.091,6.301,1.657
					c1.141,0.309,2.28,0.617,3.422,0.918c0.571,0.155,1.14,0.307,1.709,0.458c1.051,0.279,2.102,0.559,3.146,0.86l4.8,1.508
					c1.126,0.36,2.253,0.71,3.379,1.061c2.036,0.634,4.142,1.289,6.2,1.989c3.514,1.208,6.595,2.405,9.423,3.66
					c3.227,1.429,6.238,3.06,8.948,4.845c2.93,1.945,5.547,4.188,7.783,6.667c4.913,5.617,8.56,11.384,10.843,17.146
					c2.53,6.252,3.769,13.157,3.579,19.963c-0.16,6.376-1.495,13.058-3.968,19.858c-2.161,5.909-5.095,11.827-8.969,18.092
					c-6.409,10.246-14.707,20.446-25.368,31.188c-8.779,8.835-18.627,17.532-30.105,26.591c-7.49,5.939-15.37,11.608-22.99,17.091
					c-3.106,2.235-6.212,4.47-9.3,6.727c-30.475,22.276-69.535,52.754-101.358,91.034c-11.555,13.9-21.95,29.027-32.004,43.657
					c-12.587,18.317-25.604,37.259-41.029,53.989c-30.896,33.508-64.913,51.089-101.107,52.256
					c-33.264,1.054-64.841-11.44-96.511-38.252c-6.306-5.338-12.255-11.068-18.008-16.61
					c-13.288-12.798-25.837-24.887-42.816-33.038c-23.632-11.344-51.593-6.737-83.108,13.692
					c-30.502,19.773-56.291,46.138-80.091,71.448c-34.786,36.991-66.721,61.402-97.629,74.628
					c-6.218,2.671-12.583,4.968-18.917,6.827c-6.08,1.795-12.508,3.203-19.648,4.306C40.969,471.271,34.825,471.732,28.787,471.732z
					 M570.609-42.152l-19.912,0.716l-320.584,11.61l-80.146,2.968c-24.164,1.029-52.239,2.629-79.619,8.633
					c-13.85,3.046-26.691,7.103-38.167,12.057c-1.974,0.864-3.959,1.809-5.878,2.723c-1.07,0.509-2.141,1.019-3.216,1.519
					c-2.415,1.28-4.834,2.606-7.253,3.932l-1.551,0.849c-0.976,0.618-1.98,1.244-2.984,1.87C9.491,5.85,7.623,7.015,5.813,8.196
					c-0.942,0.685-1.91,1.371-2.878,2.058c-1.733,1.229-3.525,2.499-5.235,3.81C-22.432,29.589-39.545,50.179-53.164,75.26
					c-6.233,11.474-11.659,23.801-16.127,36.639c-4.144,11.905-7.651,24.914-10.425,38.665c-4.749,23.589-7.341,48.899-8.156,79.652
					c-0.312,11.958-0.361,24.696-0.155,40.089c0.182,12.715,0.446,26.371,1.146,40.072c0.855,15.673,2.061,28.346,3.796,39.88
					c2.247,14.799,5.13,27.565,8.815,39.029l1.542,4.773l2.569,7.056l1.892,4.631l1.03,2.27c2.802,6.163,6.081,12.03,9.745,17.439
					c7.739,11.439,17.174,20.91,28.042,28.148c11.034,7.392,23.728,12.63,36.709,15.145c12.669,2.498,26.053,2.731,39.785,0.691
					c7.096-1.096,13.484-2.495,19.526-4.278c6.3-1.849,12.63-4.134,18.814-6.791c30.79-13.175,62.624-37.516,97.322-74.412
					c23.839-25.352,49.673-51.761,80.261-71.59c31.801-20.616,60.064-25.245,84.005-13.749
					c17.112,8.215,29.714,20.353,43.056,33.204c5.742,5.532,11.681,11.252,17.964,16.571c31.489,26.657,62.835,39.103,95.888,38.033
					c35.938-1.158,69.738-18.64,100.461-51.959c15.381-16.683,28.378-35.596,40.947-53.887
					c10.065-14.647,20.473-29.793,32.055-43.725c31.888-38.357,71.006-68.881,101.523-91.188c3.09-2.259,6.198-4.495,9.306-6.732
					c7.612-5.476,15.482-11.139,22.957-17.065c11.45-9.036,21.271-17.709,30.023-26.518c10.612-10.692,18.868-20.84,25.24-31.025
					c3.84-6.209,6.746-12.072,8.886-17.921c2.438-6.706,3.754-13.29,3.911-19.568c0.186-6.682-1.028-13.459-3.513-19.597
					C873.431,1.577,869.84-4.1,865.003-9.63c-2.184-2.421-4.742-4.613-7.605-6.515c-2.667-1.757-5.633-3.362-8.814-4.771
					c-2.803-1.244-5.861-2.431-9.348-3.63c-2.045-0.695-4.145-1.349-6.176-1.98c-1.129-0.352-2.257-0.703-3.383-1.063l-4.788-1.504
					c-0.415-0.12-0.833-0.236-1.253-0.351c0.421,0.117,0.842,0.235,1.261,0.357l4.782,1.516c1.132,0.366,2.264,0.721,3.395,1.077
					c2.02,0.635,4.107,1.291,6.145,1.989c3.48,1.208,6.533,2.403,9.333,3.654c3.174,1.416,6.131,3.026,8.788,4.788
					c2.849,1.903,5.393,4.094,7.565,6.515c4.831,5.529,8.41,11.196,10.644,16.847c2.472,6.121,3.679,12.879,3.49,19.54
					c-0.161,6.256-1.479,12.823-3.915,19.515c-2.161,5.884-5.061,11.737-8.862,17.896c-6.356,10.183-14.596,20.33-25.191,31.025
					c-18.854,19.032-41.091,34.758-62.597,49.968c-11.553,8.17-23.499,16.619-34.762,25.47
					c-36.908,29.005-65.806,57.121-88.346,85.954c-5.356,6.851-10.639,13.96-15.749,20.836
					c-18.925,25.465-38.494,51.798-65.715,70.35c-29.155,19.869-62.511,27.775-91.524,21.685
					c-34.07-7.152-59.707-32.094-80.307-52.135c-29.692-28.885-58.546-42.34-85.762-39.998
					c-26.746,2.305-54.326,16.058-84.314,42.046c-18.628,16.143-35.503,34.634-51.824,52.517
					c-11.208,12.28-22.798,24.979-34.863,36.819c-20.61,20.226-46.189,42.366-79.635,53.235c-5.755,1.871-11.978,3.397-19.025,4.668
					c-13.167,2.328-26.284,2.36-38.987,0.091c-12.986-2.299-25.549-7.252-36.33-14.323c-10.842-7.033-20.283-16.29-28.061-27.512
					c-3.676-5.345-6.972-11.146-9.797-17.247l-1.04-2.249l-1.914-4.59l-2.609-7.013l-1.57-4.743
					c-3.733-11.371-6.57-23.735-8.929-38.915c-0.43-2.753-0.794-5.561-1.146-8.277l-0.212-1.63
					c-0.111-1.064-0.228-2.114-0.345-3.165c-0.248-2.225-0.504-4.525-0.687-6.799c-0.635-6.529-1.034-13.169-1.419-19.962
					c-0.693-13.684-0.953-27.338-1.129-40.055c-0.197-15.447-0.15-28.18,0.147-40.07c0.792-30.73,3.364-56.017,8.091-79.58
					c2.81-13.987,6.199-26.621,10.359-38.625c4.443-12.824,9.844-25.141,16.052-36.608c13.564-25.065,30.624-45.651,50.707-61.185
					c1.704-1.309,3.479-2.572,5.197-3.793c0.966-0.688,1.932-1.375,2.89-2.072c1.809-1.185,3.623-2.319,5.438-3.454
					c1.007-0.63,2.015-1.26,3.019-1.897l1.622-0.892c2.385-1.311,4.77-2.622,7.173-3.9c1.095-0.511,2.163-1.022,3.232-1.532
					c1.904-0.91,3.873-1.851,5.841-2.715c11.577-5.013,24.407-9.08,38.134-12.088c24.621-5.398,49.628-7.353,79.601-8.627
					l80.143-2.963l320.581-11.726L570.609-42.152z M686.581-44.583c-2.062,0-3.993,0.015-5.619,0.03l-10.022,0.084
					c-14.581,0.215-29.071,0.669-40.065,1.041l-80.143,2.919L230.15-28.782l-80.14,2.963c-29.922,1.271-54.884,3.222-79.44,8.606
					c-13.67,2.995-26.442,7.043-37.963,12.032c-1.953,0.857-3.915,1.795-5.812,2.702c-1.071,0.512-2.143,1.024-3.218,1.525
					c-2.377,1.266-4.759,2.575-7.141,3.884l-1.597,0.877c-0.98,0.623-1.989,1.254-2.998,1.885c-1.81,1.132-3.619,2.263-5.403,3.431
					c-0.942,0.686-1.911,1.376-2.879,2.065c-1.711,1.217-3.48,2.475-5.169,3.773C-21.59,30.414-38.568,50.902-52.07,75.854
					c-6.184,11.424-11.565,23.694-15.991,36.472c-4.147,11.964-7.525,24.56-10.327,38.505c-4.716,23.51-7.282,48.747-8.073,79.422
					c-0.297,11.878-0.344,24.599-0.147,40.034c0.177,12.708,0.437,26.353,1.128,40.018c0.385,6.781,0.783,13.41,1.417,19.93
					c0.183,2.268,0.438,4.561,0.685,6.779c0.117,1.053,0.235,2.105,0.345,3.159l0.21,1.619c0.352,2.71,0.714,5.513,1.142,8.254
					c2.352,15.129,5.178,27.448,8.895,38.769l1.563,4.727l2.597,6.98l1.901,4.558l1.032,2.232c2.804,6.054,6.074,11.81,9.72,17.111
					c7.599,10.965,17.215,20.393,27.806,27.264c10.68,7.005,23.124,11.911,35.989,14.188c12.598,2.251,25.606,2.221,38.665-0.091
					c7.004-1.263,13.188-2.779,18.902-4.638c33.177-10.781,57.708-31.853,79.276-53.017c12.047-11.822,23.628-24.512,34.828-36.783
					c16.338-17.902,33.232-36.414,51.9-52.592c30.141-26.119,57.892-39.945,84.838-42.267c27.497-2.375,56.59,11.176,86.482,40.256
					c26.09,25.381,48.535,45.318,79.855,51.893c28.764,6.041,61.865-1.815,90.817-21.544c27.093-18.465,46.615-44.734,65.495-70.139
					c5.112-6.88,10.399-13.994,15.762-20.853c22.586-28.893,51.535-57.06,88.502-86.11c11.281-8.866,23.237-17.321,34.799-25.498
					c21.474-15.187,43.679-30.89,62.475-49.865c10.547-10.645,18.745-20.741,25.064-30.863c3.769-6.103,6.641-11.902,8.78-17.726
					c2.402-6.598,3.7-13.066,3.858-19.224c0.187-6.537-0.998-13.167-3.424-19.174c-2.196-5.556-5.721-11.132-10.478-16.578
					c-2.12-2.362-4.605-4.501-7.387-6.36c-2.614-1.733-5.526-3.318-8.654-4.713c-2.776-1.241-5.805-2.427-9.258-3.625
					c-2.024-0.694-4.107-1.349-6.12-1.981c-1.135-0.357-2.269-0.713-3.4-1.079l-4.769-1.513c-1.022-0.298-2.061-0.577-3.099-0.856
					c-0.571-0.153-1.142-0.307-1.712-0.464c-1.143-0.305-2.287-0.618-3.432-0.93c-2.074-0.567-4.147-1.133-6.231-1.658
					c-1.463-0.33-2.937-0.67-4.409-1.01c-4.943-1.141-10.055-2.321-15.139-3.182c-5.088-1.031-10.297-1.816-15.334-2.575
					c-1.476-0.223-2.951-0.445-4.425-0.673c-2.124-0.288-4.262-0.542-6.398-0.796c-1.177-0.14-2.354-0.28-3.53-0.426l-4.973-0.59
					l-4.976-0.458c-14.592-1.47-29.024-2.06-39.969-2.411l-10.014-0.241l-10.014-0.081
					C689.488-44.576,688.003-44.583,686.581-44.583z"/>
			</g>
			
				<radialGradient id="SVGID_00000119090520409545715920000006954747996104915342_" cx="220.7421" cy="269.1178" r="382.4526" gradientUnits="userSpaceOnUse">
				<stop  offset="0" style="stop-color:#242A38"/>
				<stop  offset="1" style="stop-color:#06070D"/>
			</radialGradient>
			
				<path style="clip-path:url(#SVGID_00000121238520491798788040000006901055479193406135_);fill:url(#SVGID_00000119090520409545715920000006954747996104915342_);" d="
				M-53.961,427.874c61.201,35.614,125.484-13.79,165.686-57.983c46.473-51.087,83.348-121.658,151.274-147.459
				c48.696-18.496,96.282-11.233,145.591-0.203c31.382,7.02,69.153,10.499,97.705-7.255c39.98-24.859,59.009-66.665,76.06-108.66
				c15.713-38.698,44.958-74.092,80.079-96.765c36.545-23.592,77.344-39.693,118.158-54.741
				c-235.889-7.185-463.433-62.509-699.061-49.285c-49.2,2.761-103.87,11.23-134.084,50.159
				C-65.246-27.961-72.074-7.886-77.739,12.028c-19.97,70.195-28.174,143.721-24.167,216.591
				c1.839,33.435,6.302,67.032,17.716,98.513C-71.415,362.361-59.267,390.778-53.961,427.874z"/>
			
				<linearGradient id="SVGID_00000121998402867738407790000008652028916020998847_" gradientUnits="userSpaceOnUse" x1="79.3629" y1="145.5181" x2="182.7997" y2="207.5803">
				<stop  offset="0.0025" style="stop-color:#08090F"/>
				<stop  offset="1" style="stop-color:#06070D;stop-opacity:0"/>
			</linearGradient>
			
				<path style="clip-path:url(#SVGID_00000121238520491798788040000006901055479193406135_);fill:url(#SVGID_00000121998402867738407790000008652028916020998847_);" d="
				M154.203,243.404c23.057-23.058,43.309-50.072,71.98-65.605c42.01-22.759,97.529-18.25,132.767-50.517
				c14.361-13.15,23.443-30.937,32.223-48.316c2.07-4.098,4.156-8.991,2.064-13.077c-1.902-3.716-6.453-5.086-10.552-5.875
				c-21.688-4.172-44.036-2.312-66.011-0.105c-36.858,3.701-73.621,8.337-110.244,13.9c-31.673,4.812-63.481,10.382-93.393,21.856
				c-32.991,12.655-62.948,32.237-90.541,54.309c-18.741,14.991-36.611,31.295-51.282,50.288
				c-19.25,24.921-63.906,100.922-31.475,130.361c16.116,14.63,49.506,2.074,67.567-2.814c25.762-6.971,50.689-17.032,74.072-29.899
				C108.029,283.245,132.686,264.921,154.203,243.404z"/>
			
				<linearGradient id="SVGID_00000053535688491406658470000005605416966368699568_" gradientUnits="userSpaceOnUse" x1="74.0767" y1="142.3749" x2="177.5135" y2="204.4371">
				<stop  offset="0.0025" style="stop-color:#08090F"/>
				<stop  offset="1" style="stop-color:#06070D;stop-opacity:0"/>
			</linearGradient>
			
				<path style="clip-path:url(#SVGID_00000121238520491798788040000006901055479193406135_);fill:url(#SVGID_00000053535688491406658470000005605416966368699568_);" d="
				M154.226,243.427c27.696-27.505,51.637-59.419,89.552-73.485c37.988-14.094,83.859-13.987,115.172-42.66
				c14.361-13.15,23.443-30.937,32.223-48.316c2.07-4.098,4.156-8.991,2.064-13.077c-1.902-3.716-6.453-5.086-10.552-5.875
				c-21.688-4.172-44.036-2.312-66.011-0.105c-36.858,3.701-73.621,8.337-110.244,13.9c-31.673,4.812-63.481,10.382-93.393,21.856
				c-32.991,12.655-62.948,32.237-90.541,54.309c-18.741,14.991-36.611,31.295-51.282,50.288
				c-19.25,24.92-63.904,100.919-31.474,130.362c21.474,19.49,72.445-2.99,94.96-11.486c41.019-15.479,79.194-38.651,111.624-68.176
				C149.011,248.514,151.639,245.996,154.226,243.427z"/>
			
				<radialGradient id="SVGID_00000040546223248768705360000011331858039812019865_" cx="47.3177" cy="178.9003" r="374.0313" gradientUnits="userSpaceOnUse">
				<stop  offset="0" style="stop-color:#242A38"/>
				<stop  offset="1" style="stop-color:#06070D"/>
			</radialGradient>
			
				<path style="clip-path:url(#SVGID_00000121238520491798788040000006901055479193406135_);fill:url(#SVGID_00000040546223248768705360000011331858039812019865_);" d="
				M573.355-106.918c-3.945-2.175-6.418-12.528-9.969-16.061c-4.047-4.026-7.416-5.231-12.798-6.533
				c-14.805-3.582-29.932-2.506-44.94-3.741c-16.333-1.345-32.654-2.841-48.964-4.444c-33.291-3.272-66.534-7.001-99.764-10.84
				c-146.574-16.931-293.866-35.968-441.724-27.67c-49.2,2.761-103.87,11.23-134.084,50.159
				c-12.694,16.355-19.521,36.431-25.186,56.344c-19.97,70.195-28.174,143.721-24.167,216.591
				c1.839,33.435,6.302,67.032,17.718,98.515c8.848,24.4,31.25,45.416,55.934,61.687c14.742,9.717,30.297,17.742,44.264,23.784
				c49.888,21.582,107.783,19.1,157.229-2.465c50.449-22.003,92.358-62.813,124.761-106.772
				c21.513-29.186,39.201-61.616,68.273-84.223c24.246-18.854,53.589-31.193,84.119-34.816c31.449-3.732,64.318,0.571,94.273-11.848
				c18.496-7.668,33.78-21.172,46.478-36.408c16.397-19.674,26.518-39.232,52.468-47.377c27.329-8.578,53.974-12.064,79.402-26.403
				c16.79-9.468,33.193-23.039,37.334-41.864C597.855-78.778,589.025-98.277,573.355-106.918z"/>
			<g style="clip-path:url(#SVGID_00000121238520491798788040000006901055479193406135_);">
				
					<radialGradient id="SVGID_00000090273372090983559110000004116212320136869012_" cx="162.4435" cy="83.8153" r="358.6814" gradientUnits="userSpaceOnUse">
					<stop  offset="0" style="stop-color:#242A38"/>
					<stop  offset="1" style="stop-color:#06070D"/>
				</radialGradient>
				<path style="fill:url(#SVGID_00000090273372090983559110000004116212320136869012_);" d="M576.271-109.457
					c-3.905-4.451-8.232-8.539-12.956-12.103c-4.725-3.523-9.846-6.684-15.436-8.495c-2.792-0.924-5.712-1.443-8.639-1.819
					c-2.93-0.382-5.893-0.542-8.857-0.62c-5.931-0.173-11.88,0.066-17.848-0.015c-2.977-0.031-5.989-0.162-8.944-0.469l-8.892-0.807
					l-17.785-1.614l-17.785-1.614c-5.927-0.555-11.837-1.262-17.757-1.885l-71.009-7.715c-11.839-1.25-23.661-2.645-35.485-4.02
					l-35.472-4.12c-23.651-2.714-47.301-5.44-70.975-7.932c-11.831-1.306-23.68-2.431-35.52-3.653l-17.774-1.673
					c-5.925-0.555-11.849-1.124-17.781-1.602c-47.427-4.073-94.963-7.147-142.564-7.861c-5.949-0.079-11.899-0.206-17.848-0.246
					l-17.85,0.059l-8.925,0.038l-8.922,0.208l-17.844,0.438l-17.83,0.818c-5.943,0.275-11.888,0.518-17.818,0.961
					c-11.861,0.834-23.699,2.042-35.426,3.953c-11.72,1.91-23.339,4.539-34.586,8.312c-11.234,3.769-22.112,8.709-31.982,15.244
					c-9.872,6.508-18.651,14.682-25.615,24.224c-7.006,9.531-12.078,20.355-16.21,31.444c-4.103,11.125-7.254,22.605-10.318,34.088
					c-3.025,11.496-5.737,23.074-8.134,34.716c-4.793,23.285-8.325,46.827-10.581,70.49c-1.143,11.833-1.901,23.686-2.471,35.573
					c-0.599,11.879-1.025,23.762-1.129,35.644c-0.121,11.881,0.122,23.762,0.843,35.61c0.705,11.847,1.943,23.66,3.894,35.35
					c0.933,5.853,2.157,11.65,3.466,17.423c1.429,5.742,2.916,11.475,4.793,17.083c1.779,5.64,3.929,11.15,6.225,16.589
					c1.25,2.673,2.37,5.41,3.755,8.016l1.999,3.948l2.171,3.854c5.786,10.281,12.983,19.731,21.211,28.145
					c8.273,8.396,17.576,15.773,27.455,22.252c9.867,6.511,20.304,12.156,31.011,17.228c2.672,1.28,5.374,2.499,8.077,3.713
					l4.072,1.787l4.113,1.634c2.744,1.084,5.463,2.234,8.287,3.098l4.199,1.398l2.099,0.699c0.705,0.215,1.422,0.393,2.133,0.591
					c2.853,0.753,5.684,1.592,8.553,2.276l8.658,1.849l8.743,1.397c1.453,0.265,2.927,0.372,4.394,0.534l4.404,0.459
					c11.758,1.057,23.608,1.049,35.372,0.03c23.549-1.97,46.671-8.294,68.155-18.06c21.556-9.727,41.346-23.093,59.461-38.291
					c9.075-7.6,17.668-15.776,25.869-24.321c8.205-8.544,16.019-17.466,23.465-26.689l5.507-6.98l5.356-7.097
					c3.544-4.75,6.964-9.592,10.345-14.478c6.765-9.765,13.37-19.687,20.395-29.363c6.989-9.693,14.495-19.093,22.841-27.767
					c8.362-8.653,17.752-16.394,27.867-22.896c20.179-13.122,43.081-22.082,66.873-25.847c5.954-0.912,11.936-1.525,17.911-1.925
					c5.975-0.382,11.943-0.626,17.895-0.824c11.897-0.413,23.756-0.76,35.449-2.276c5.831-0.811,11.627-1.854,17.289-3.39
					c1.42-0.366,2.805-0.845,4.21-1.261l2.099-0.65l2.056-0.77c2.755-0.995,5.47-2.085,8.1-3.371
					c10.589-5.025,20.147-12.103,28.704-20.187c4.27-4.062,8.299-8.386,12.125-12.888c3.82-4.512,7.446-9.207,11.102-13.912
					c3.66-4.699,7.367-9.408,11.446-13.834c4.072-4.423,8.548-8.551,13.555-11.975c4.995-3.436,10.502-6.124,16.244-8.012
					c5.71-1.88,11.455-3.428,17.222-4.964c11.53-3.027,23.106-5.759,34.417-9.328c11.287-3.597,22.302-8.109,32.453-14.21
					c5.072-3.042,9.953-6.404,14.471-10.202c4.496-3.815,8.593-8.109,11.979-12.917c3.362-4.816,5.863-10.228,7.224-15.932
					c0.599-2.854,0.948-5.772,0.841-8.705c-0.119-2.923-0.44-5.857-1.153-8.715c-0.275-1.446-0.77-2.84-1.152-4.261
					c-0.512-1.382-0.924-2.801-1.523-4.151l-0.846-2.045l-0.946-2.002c-0.602-1.349-1.354-2.625-2.033-3.937
					C583.606-100.14,580.132-104.969,576.271-109.457z M576.963-110.063c3.916,4.519,7.443,9.387,10.391,14.599
					c0.693,1.327,1.458,2.616,2.074,3.983l0.966,2.028l0.867,2.074c0.612,1.369,1.038,2.812,1.563,4.216
					c0.396,1.447,0.903,2.864,1.19,4.34c0.737,2.913,1.078,5.918,1.21,8.921c0.12,3.012-0.227,6.03-0.837,8.979
					c-1.375,5.859-3.925,11.418-7.342,16.347c-3.44,4.921-7.596,9.301-12.142,13.186c-4.568,3.867-9.493,7.283-14.603,10.371
					c-10.228,6.195-21.342,10.79-32.684,14.447c-11.366,3.628-22.96,6.405-34.453,9.464c-5.738,1.549-11.486,3.12-17.108,4.993
					c-5.608,1.865-10.959,4.5-15.818,7.865c-4.871,3.354-9.236,7.402-13.233,11.773c-4.004,4.373-7.667,9.057-11.306,13.762
					c-3.635,4.709-7.26,9.442-11.097,14.01c-3.846,4.561-7.902,8.95-12.212,13.082c-8.638,8.225-18.329,15.469-29.131,20.648
					c-2.683,1.324-5.456,2.451-8.264,3.478l-2.097,0.794l-2.138,0.672c-1.431,0.43-2.844,0.924-4.289,1.302
					c-5.765,1.588-11.648,2.67-17.555,3.515c-23.685,3.214-47.686,1.439-71.183,5.165c-23.451,3.745-46.033,12.617-65.914,25.586
					c-4.965,3.247-9.813,6.698-14.365,10.503c-4.627,3.715-8.922,7.827-13.089,12.05c-8.243,8.55-15.689,17.847-22.652,27.483
					c-6.998,9.615-13.605,19.517-20.397,29.299c-6.766,9.8-13.855,19.393-21.338,28.666c-7.495,9.263-15.363,18.228-23.627,26.815
					c-8.261,8.588-16.918,16.808-26.067,24.453c-18.261,15.287-38.228,28.746-60.005,38.545
					c-21.714,9.842-45.076,16.203-68.866,18.168c-11.885,1.016-23.858,1.012-35.739-0.07l-4.45-0.469
					c-1.482-0.166-2.971-0.276-4.44-0.545l-8.835-1.422l-8.75-1.879c-2.9-0.694-5.762-1.545-8.646-2.311
					c-0.718-0.201-1.442-0.382-2.155-0.6l-2.122-0.709l-4.245-1.418c-2.855-0.877-5.604-2.043-8.378-3.142l-4.157-1.658l-4.09-1.8
					c-2.717-1.223-5.432-2.452-8.118-3.742c-10.764-5.114-21.274-10.811-31.227-17.394c-9.965-6.551-19.364-14.017-27.738-22.534
					c-8.34-8.545-15.626-18.138-21.471-28.551l-2.193-3.904l-2.018-3.996c-1.399-2.639-2.528-5.405-3.786-8.11
					c-2.312-5.499-4.473-11.068-6.259-16.761c-1.884-5.662-3.374-11.442-4.804-17.23c-1.31-5.817-2.532-11.656-3.462-17.545
					c-1.944-11.764-3.169-23.637-3.858-35.532c-0.704-11.896-0.929-23.816-0.789-35.726c0.123-11.912,0.569-23.816,1.188-35.707
					c0.59-11.89,1.369-23.784,2.533-35.638c2.299-23.712,5.876-47.301,10.717-70.628c2.42-11.663,5.156-23.261,8.206-34.776
					c3.089-11.499,6.263-22.998,10.411-34.192c4.176-11.154,9.311-22.078,16.423-31.722c7.07-9.655,15.975-17.917,25.961-24.476
					c9.984-6.587,20.962-11.547,32.274-15.323c11.326-3.778,23.003-6.4,34.769-8.298c11.772-1.899,23.642-3.091,35.526-3.907
					c5.942-0.434,11.892-0.667,17.84-0.934l17.844-0.79l17.857-0.416l8.928-0.208l8.93-0.038l17.861-0.059
					c5.953,0.04,11.906,0.167,17.859,0.246c47.628,0.715,95.186,3.79,142.628,7.864c5.934,0.478,11.859,1.047,17.786,1.603
					L193-167.253c11.842,1.222,23.694,2.348,35.527,3.653c23.679,2.493,47.331,5.22,70.984,7.933l35.473,4.12
					c11.824,1.374,23.645,2.77,35.482,4.019l70.998,7.714c5.918,0.623,11.829,1.33,17.754,1.885l17.78,1.614l17.78,1.614l8.89,0.807
					c2.966,0.307,5.906,0.434,8.88,0.466c5.935,0.081,11.891-0.159,17.861,0.015c2.984,0.079,5.974,0.24,8.946,0.627
					c2.969,0.381,5.94,0.909,8.805,1.855c5.757,1.87,10.918,5.068,15.709,8.637C568.648-118.687,573.018-114.558,576.963-110.063z"
					/>
			</g>
			
				<linearGradient id="SVGID_00000132068935999402790240000017764500105262339207_" gradientUnits="userSpaceOnUse" x1="54.2679" y1="103.8255" x2="132.4146" y2="150.7136">
				<stop  offset="0.0025" style="stop-color:#08090F"/>
				<stop  offset="1" style="stop-color:#06070D;stop-opacity:0"/>
			</linearGradient>
			
				<path style="clip-path:url(#SVGID_00000121238520491798788040000006901055479193406135_);fill:url(#SVGID_00000132068935999402790240000017764500105262339207_);" d="
				M52.613,21.954C27.696,49.843,6.51,82.294-7.607,117.007c-5.835,14.347-0.81,26.738-10.899,40.354
				c-8.514,11.49-20.673,19.666-29.386,30.947c-19.25,24.921-63.906,100.922-31.475,130.361c16.116,14.63,49.506,2.074,67.567-2.814
				c35.064-9.489,83.717-25.296,104.374-57.813c7.041-11.083,11.436-23.598,17.047-35.469c9.606-20.323,22.829-38.849,31.491-59.593
				c6.926-16.587,10.888-34.482,19.864-50.056c8.557-14.847,21.576-27.085,36.923-34.708c15.185-7.543,32.179-10.514,48.165-16.165
				c28.254-9.989,53.376-28.647,71.103-52.809c7.712-10.511,14.085-24.958,7.245-36.056c-4.035-6.548-11.608-9.902-18.83-12.55
				C232.94-66.001,146.286-56.961,85.386-9.237C73.5,0.077,62.675,10.693,52.613,21.954z"/>
			
				<radialGradient id="SVGID_00000168099230479057240840000018180233132322900104_" cx="63.7955" cy="148.2286" r="238.453" gradientUnits="userSpaceOnUse">
				<stop  offset="0" style="stop-color:#242A38"/>
				<stop  offset="1" style="stop-color:#06070D"/>
			</radialGradient>
			
				<path style="clip-path:url(#SVGID_00000121238520491798788040000006901055479193406135_);fill:url(#SVGID_00000168099230479057240840000018180233132322900104_);" d="
				M96.992,147.488c6.107-36.674,7.18-79.378,36.443-102.311c26.382-20.675,64.928-15.764,94.882-30.804
				c22.032-11.063,37.782-32.56,45.086-56.107c1.214-3.915,2.208-8.191,0.816-12.046c-2.107-5.834-8.714-8.499-14.647-10.309
				c-43.976-13.415-90.326-16.887-136.273-18.552c-37.887-1.373-75.816-1.576-113.716-0.607
				c-27.904,0.714-57.961,2.855-79.489,20.623c-11.63,9.599-19.558,22.884-26.566,36.237
				c-45.906,87.472-61.513,190.488-43.576,287.632c2.946,15.953,7.051,32.347,17.292,44.93c24.048,29.55,64.86,30.578,98.153,18.028
				C44.064,298.318,85.632,215.702,96.992,147.488z"/>
			<g style="clip-path:url(#SVGID_00000121238520491798788040000006901055479193406135_);">
				
					<radialGradient id="SVGID_00000152949055897042565800000013733147742326690481_" cx="63.8167" cy="123.9769" r="210.3599" gradientUnits="userSpaceOnUse">
					<stop  offset="0" style="stop-color:#242A38"/>
					<stop  offset="1" style="stop-color:#06070D"/>
				</radialGradient>
				<path style="fill:url(#SVGID_00000152949055897042565800000013733147742326690481_);" d="M95.448,147.231
					c2.358-14.04,3.92-28.283,6.578-42.413c0.672-3.531,1.41-7.053,2.237-10.56c0.848-3.503,1.794-6.986,2.866-10.437
					c2.187-6.884,4.907-13.653,8.562-19.954c1.803-3.159,3.844-6.194,6.134-9.034c2.29-2.835,4.752-5.553,7.504-7.959
					c2.732-2.421,5.652-4.637,8.744-6.574c3.087-1.946,6.345-3.596,9.671-5.05c6.663-2.906,13.639-4.92,20.644-6.535
					c7.01-1.628,14.07-2.866,21.086-4.191c7.017-1.316,13.997-2.726,20.831-4.621c6.808-1.939,13.51-4.32,19.673-7.734
					c12.442-6.669,22.752-16.945,30.493-28.747c3.892-5.907,7.069-12.278,9.639-18.871c0.314-0.827,0.648-1.647,0.947-2.48
					l0.847-2.516c0.58-1.676,1.107-3.361,1.48-5.046c0.774-3.345,0.822-6.871-0.916-9.678c-1.69-2.82-4.703-4.73-7.866-6.1
					c-3.181-1.394-6.646-2.288-10.066-3.303c-6.836-2.022-13.765-3.72-20.715-5.315c-13.929-3.076-28.027-5.392-42.197-7.127
					c-14.176-1.705-28.417-2.876-42.679-3.726c-28.533-1.597-57.126-2.351-85.711-2.53c-14.294-0.081-28.59,0.005-42.882,0.262
					C6.065-82.727-8.253-82.56-22.405-80.655c-7.066,0.955-14.083,2.351-20.887,4.472c-6.797,2.117-13.381,4.979-19.403,8.779
					c-1.489,0.973-3.017,1.892-4.4,3.016c-1.418,1.074-2.852,2.13-4.175,3.324c-2.678,2.344-5.17,4.901-7.492,7.603
					c-4.647,5.409-8.609,11.379-12.211,17.54c-13.801,25.013-25.273,51.333-34.03,78.531c-8.673,27.225-14.78,55.254-18.253,83.6
					l-0.684,5.311c-0.213,1.772-0.326,3.555-0.495,5.332l-0.931,10.669c-0.379,3.552-0.425,7.126-0.622,10.69l-0.493,10.697
					l-0.061,10.708l-0.026,5.354l-0.011,2.677l0.098,2.675l0.392,10.7l0.208,5.349l0.419,5.337l0.838,10.673
					c0.109,1.782,0.335,3.552,0.554,5.323l0.643,5.314c0.444,3.54,0.824,7.09,1.32,10.622l1.738,10.562
					c1.101,7.05,2.407,14.072,4.193,20.952c1.797,6.867,4.039,13.642,7.303,19.909c3.221,6.279,7.512,11.967,12.672,16.787
					c5.087,4.884,11.035,8.827,17.4,11.838c12.817,5.976,27.286,7.827,41.364,6.788c14.12-1.085,28.005-4.905,40.838-10.906
					c6.459-2.921,12.627-6.467,18.531-10.389c2.989-1.91,5.809-4.068,8.666-6.167l4.15-3.331c1.405-1.084,2.691-2.313,4.042-3.461
					c5.321-4.693,10.396-9.678,15.108-14.995c4.728-5.298,9.243-10.798,13.391-16.571c4.167-5.756,8.139-11.662,11.759-17.784
					c3.642-6.106,7.094-12.332,10.216-18.724c3.145-6.379,6.1-12.857,8.741-19.463c2.661-6.597,5.137-13.272,7.299-20.05
					C89.705,175.104,93.095,161.248,95.448,147.231z M97.219,147.526c-2.396,14.109-5.834,28.039-10.286,41.639
					c-2.187,6.813-4.69,13.521-7.38,20.15c-2.67,6.639-5.654,13.148-8.83,19.558c-3.154,6.423-6.638,12.681-10.315,18.818
					c-3.656,6.152-7.665,12.09-11.872,17.877c-4.188,5.804-8.747,11.336-13.522,16.665c-4.758,5.348-9.884,10.365-15.261,15.088
					c-1.366,1.156-2.665,2.392-4.085,3.483l-4.194,3.353c-2.888,2.115-5.738,4.285-8.76,6.209
					c-5.969,3.948-12.206,7.517-18.738,10.457c-12.98,6.037-27.024,9.876-41.32,10.945c-14.253,1.024-28.936-0.874-41.972-6.982
					c-6.474-3.077-12.523-7.106-17.692-12.087c-5.233-4.906-9.608-10.73-12.868-17.119c-3.304-6.377-5.554-13.232-7.352-20.155
					c-1.785-6.937-3.08-13.982-4.17-21.049l-1.721-10.591c-0.49-3.542-0.865-7.1-1.303-10.65l-0.634-5.327
					c-0.216-1.775-0.438-3.55-0.545-5.336l-0.819-10.698l-0.409-5.349l-0.198-5.361l-0.371-10.723l-0.093-2.681l0.017-2.682
					l0.037-5.365l0.082-10.729l0.515-10.717c0.204-3.57,0.257-7.151,0.644-10.708l0.954-10.687c0.172-1.78,0.289-3.565,0.506-5.34
					l0.695-5.32c3.534-28.389,9.706-56.45,18.444-83.696c8.825-27.222,20.356-53.542,34.229-78.569
					c3.598-6.183,7.564-12.185,12.227-17.635c2.33-2.723,4.834-5.301,7.528-7.669c1.331-1.205,2.773-2.272,4.201-3.358
					c1.393-1.135,2.93-2.064,4.429-3.048c6.06-3.841,12.685-6.736,19.518-8.878c6.839-2.146,13.887-3.562,20.976-4.534
					c14.2-1.94,28.542-2.133,42.828-2.442c14.298-0.285,28.599-0.399,42.899-0.346c28.6,0.124,57.2,0.822,85.763,2.365
					c14.278,0.824,28.542,1.968,42.748,3.649c14.201,1.711,28.339,4.004,42.316,7.062c6.975,1.587,13.93,3.276,20.795,5.293
					c3.427,1.011,6.907,1.896,10.215,3.334c1.652,0.709,3.257,1.559,4.719,2.629c1.452,1.071,2.787,2.363,3.714,3.941
					c0.936,1.568,1.48,3.364,1.584,5.18c0.127,1.818-0.122,3.628-0.504,5.385c-0.387,1.76-0.921,3.475-1.503,5.168l-0.852,2.548
					c-0.3,0.844-0.636,1.674-0.953,2.512c-2.587,6.677-5.79,13.132-9.722,19.125c-7.818,11.972-18.261,22.432-30.92,29.252
					c-6.275,3.49-13.073,5.918-19.947,7.89c-6.899,1.928-13.918,3.358-20.942,4.69c-7.023,1.34-14.063,2.59-21.017,4.219
					c-6.951,1.616-13.833,3.621-20.367,6.486c-3.262,1.433-6.447,3.054-9.458,4.96c-3.016,1.897-5.856,4.062-8.517,6.429
					c-2.679,2.35-5.074,5.007-7.305,7.779c-2.231,2.777-4.221,5.747-5.981,8.845c-3.568,6.177-6.234,12.84-8.38,19.641
					c-1.052,3.41-1.981,6.858-2.815,10.329c-0.812,3.477-1.538,6.974-2.199,10.484C101.093,119.181,99.56,133.411,97.219,147.526z"
					/>
			</g>
			<g style="clip-path:url(#SVGID_00000121238520491798788040000006901055479193406135_);">
				
					<linearGradient id="SVGID_00000052106520214163759410000017017766265408177085_" gradientUnits="userSpaceOnUse" x1="216.9538" y1="107.7779" x2="631.7223" y2="107.7779">
					<stop  offset="0" style="stop-color:#C19966"/>
					<stop  offset="0.116" style="stop-color:#CD995B"/>
					<stop  offset="0.3329" style="stop-color:#DC994B"/>
					<stop  offset="0.5025" style="stop-color:#E29946"/>
					<stop  offset="0.5184" style="stop-color:#E5A354"/>
					<stop  offset="0.5664" style="stop-color:#ECBE78"/>
					<stop  offset="0.6112" style="stop-color:#F1D292"/>
					<stop  offset="0.6513" style="stop-color:#F4DEA2"/>
					<stop  offset="0.6825" style="stop-color:#F5E2A8"/>
					<stop  offset="0.87" style="stop-color:#E29946"/>
				</linearGradient>
				<path style="fill:url(#SVGID_00000052106520214163759410000017017766265408177085_);" d="M217.699,249.283l-0.745-0.538
					c1.187-1.644,2.583-3.142,3.933-4.591l0.4-0.43c0.657-0.707,1.32-1.408,1.988-2.104c15.417-16.055,33.413-28.908,53.487-38.202
					c22.351-10.349,46.985-15.64,75.312-16.177c5.625-0.106,11.396-0.043,16.979,0.02c16.956,0.187,34.487,0.383,51.034-4.1
					c51.613-13.981,73.602-60.284,94.867-105.063c6.616-13.932,13.458-28.338,21.019-41.235
					c20.918-35.683,55.743-61.412,95.544-70.591l0.207,0.896c-39.557,9.122-74.167,34.694-94.958,70.16
					c-7.54,12.862-14.373,27.25-20.98,41.165c-21.355,44.966-43.436,91.463-95.458,105.556c-16.669,4.517-34.264,4.322-51.284,4.131
					c-5.575-0.063-11.341-0.126-16.951-0.02c-28.196,0.535-52.71,5.798-74.942,16.092c-19.97,9.246-37.873,22.033-53.211,38.004
					c-0.664,0.692-1.324,1.391-1.978,2.093l-0.4,0.431C220.229,246.209,218.853,247.686,217.699,249.283z"/>
			</g>
			
				<linearGradient id="SVGID_00000082365346105085516190000015715402687748589473_" gradientUnits="userSpaceOnUse" x1="-54.0155" y1="197.5069" x2="780.6301" y2="197.5069">
				<stop  offset="0" style="stop-color:#C19966"/>
				<stop  offset="0.116" style="stop-color:#CD995B"/>
				<stop  offset="0.3329" style="stop-color:#DC994B"/>
				<stop  offset="0.5025" style="stop-color:#E29946"/>
				<stop  offset="0.5184" style="stop-color:#E5A354"/>
				<stop  offset="0.5664" style="stop-color:#ECBE78"/>
				<stop  offset="0.6112" style="stop-color:#F1D292"/>
				<stop  offset="0.6513" style="stop-color:#F4DEA2"/>
				<stop  offset="0.6825" style="stop-color:#F5E2A8"/>
				<stop  offset="0.87" style="stop-color:#E29946"/>
			</linearGradient>
			
				<path style="clip-path:url(#SVGID_00000121238520491798788040000006901055479193406135_);fill:url(#SVGID_00000082365346105085516190000015715402687748589473_);" d="
				M-53.906,427.78c4.775,2.597,9.625,5.106,14.778,6.866c2.524,1.022,5.17,1.671,7.771,2.454c1.311,0.356,2.651,0.593,3.975,0.895
				l1.992,0.43c0.665,0.136,1.343,0.205,2.013,0.31l4.033,0.581l4.063,0.306c1.352,0.138,2.711,0.141,4.069,0.146
				c1.357-0.01,2.716,0.073,4.072-0.014c5.432-0.169,10.826-0.903,16.159-1.919c10.628-2.259,20.912-6.01,30.614-10.895
				c9.751-4.803,18.914-10.726,27.69-17.127c17.459-12.967,33.237-28.112,47.614-44.423c14.375-16.338,27.468-33.763,40.892-50.928
				c6.706-8.589,13.497-17.122,20.559-25.436c7.061-8.313,14.366-16.437,22.158-24.094c7.791-7.648,15.965-14.947,24.79-21.416
				c8.81-6.47,18.129-12.31,28.039-16.981c2.493-1.13,4.953-2.339,7.51-3.322l3.804-1.549l3.875-1.354
				c5.135-1.901,10.417-3.365,15.706-4.761c10.612-2.714,21.506-4.225,32.42-4.91c21.868-1.337,43.777,0.938,65.243,4.774
				c10.744,1.899,21.422,4.227,32.051,6.531c10.611,2.295,21.36,3.953,32.171,4.687c1.35,0.121,2.703,0.168,4.056,0.213l4.059,0.146
				l4.059-0.018l2.029-0.009l2.026-0.097l4.051-0.204c1.347-0.103,2.689-0.263,4.034-0.392c2.699-0.203,5.351-0.727,8.022-1.123
				c5.288-1.049,10.562-2.298,15.583-4.266l1.895-0.702l0.945-0.356l0.917-0.423l3.668-1.691l0.917-0.422l0.88-0.494l1.759-0.991
				l1.759-0.991c0.589-0.325,1.176-0.654,1.729-1.048c9.186-5.727,17.588-12.683,25.081-20.501
				c7.506-7.814,14.108-16.477,19.965-25.607c11.728-18.297,20.524-38.304,28.799-58.417c1.017-2.52,2.099-5.03,3.188-7.538
				c1.042-2.528,2.248-4.981,3.433-7.444c1.141-2.485,2.462-4.878,3.734-7.296c1.237-2.438,2.664-4.77,4.021-7.141
				c5.548-9.415,11.822-18.396,18.722-26.865c13.807-16.922,30.11-31.859,48.458-43.741c18.362-11.814,37.867-21.724,57.799-30.53
				c19.946-8.806,40.344-16.509,60.81-23.975l0.075,0.204c-20.411,7.607-40.75,15.45-60.611,24.386
				c-19.853,8.926-39.233,18.98-57.471,30.845c-18.213,11.857-34.392,26.752-48.079,43.609c-6.841,8.436-13.056,17.38-18.546,26.748
				c-1.342,2.359-2.755,4.68-3.978,7.104c-1.257,2.405-2.564,4.786-3.691,7.256c-1.171,2.449-2.363,4.887-3.391,7.4
				c-1.074,2.49-2.143,4.984-3.158,7.518c-8.237,20.156-17.012,40.262-28.785,58.73c-5.88,9.215-12.525,17.98-20.098,25.902
				c-7.56,7.926-16.056,14.996-25.351,20.822c-0.558,0.398-1.157,0.737-1.76,1.072l-1.798,1.019l-1.798,1.018l-0.9,0.507
				l-0.937,0.435l-3.747,1.738l-0.937,0.434l-0.965,0.367l-1.934,0.723c-5.127,2.021-10.497,3.308-15.879,4.388
				c-2.714,0.41-5.414,0.947-8.152,1.161c-1.365,0.134-2.729,0.299-4.096,0.407l-4.108,0.217l-2.054,0.103l-2.055,0.014
				l-4.111,0.028l-4.106-0.137c-1.369-0.043-2.738-0.087-4.102-0.205c-10.93-0.716-21.773-2.364-32.459-4.648
				c-10.66-2.321-21.267-4.667-31.976-6.581c-21.374-3.867-43.126-6.166-64.8-4.887c-10.818,0.656-21.608,2.129-32.119,4.794
				c-5.239,1.372-10.473,2.809-15.561,4.682l-3.841,1.332l-3.766,1.524c-2.532,0.966-4.967,2.158-7.437,3.271
				c-19.625,9.288-37.035,22.755-52.483,37.987c-7.767,7.599-15.063,15.677-22.121,23.952c-7.061,8.276-13.858,16.78-20.578,25.349
				c-13.451,17.123-26.594,34.54-41.048,50.897c-7.235,8.167-14.808,16.037-22.778,23.494c-7.945,7.48-16.333,14.499-25.137,20.955
				c-8.855,6.375-18.098,12.27-27.932,17.038c-9.783,4.85-20.151,8.56-30.856,10.765c-5.372,0.99-10.802,1.694-16.267,1.83
				c-1.364,0.079-2.731-0.013-4.096-0.012c-1.366-0.013-2.731-0.025-4.091-0.172l-4.082-0.333l-4.05-0.608
				c-0.673-0.11-1.353-0.184-2.021-0.324l-1.999-0.445c-1.328-0.312-2.673-0.559-3.987-0.924c-2.608-0.802-5.26-1.471-7.787-2.512
				c-5.16-1.798-10.009-4.344-14.777-6.977L-53.906,427.78z"/>
			
				<linearGradient id="SVGID_00000180339150716234048000000012185003723179983003_" gradientUnits="userSpaceOnUse" x1="-39.0551" y1="230.8868" x2="840.5433" y2="230.8868">
				<stop  offset="0" style="stop-color:#C19966"/>
				<stop  offset="0.116" style="stop-color:#CD995B"/>
				<stop  offset="0.3329" style="stop-color:#DC994B"/>
				<stop  offset="0.5025" style="stop-color:#E29946"/>
				<stop  offset="0.5184" style="stop-color:#E5A354"/>
				<stop  offset="0.5664" style="stop-color:#ECBE78"/>
				<stop  offset="0.6112" style="stop-color:#F1D292"/>
				<stop  offset="0.6513" style="stop-color:#F4DEA2"/>
				<stop  offset="0.6825" style="stop-color:#F5E2A8"/>
				<stop  offset="0.87" style="stop-color:#E29946"/>
			</linearGradient>
			
				<path style="clip-path:url(#SVGID_00000121238520491798788040000006901055479193406135_);fill:url(#SVGID_00000180339150716234048000000012185003723179983003_);" d="
				M-38.82,445.261c10.406,3.412,21.322,5.167,32.255,5.368c10.942,0.23,21.879-1.162,32.521-3.652
				c10.653-2.49,21.009-6.178,30.958-10.717c9.957-4.531,19.51-9.936,28.606-16.009c4.547-3.039,8.986-6.241,13.29-9.617
				l6.375-5.175c2.12-1.73,4.153-3.569,6.233-5.347c8.22-7.238,16.077-14.887,23.702-22.764
				c15.264-15.75,29.541-32.449,44.309-48.738c7.387-8.143,14.86-16.223,22.627-24.03c7.774-7.806,15.865-15.309,24.337-22.371
				c8.477-7.052,17.311-13.702,26.623-19.65c9.32-5.926,19.083-11.194,29.28-15.496c10.191-4.302,20.825-7.626,31.734-9.645
				l8.223-1.264l8.294-0.69c5.539-0.369,11.094-0.234,16.617,0.09c11.055,0.686,21.979,2.458,32.784,4.558
				c10.822,2.077,21.536,4.778,32.136,7.662c10.612,2.87,21.175,5.843,31.841,8.313c10.66,2.468,21.437,4.447,32.311,5.243
				l2.037,0.164l2.04,0.066l4.081,0.132c2.72,0.042,5.438-0.11,8.157-0.153c2.704-0.267,5.417-0.432,8.114-0.786l4.038-0.615
				l2.019-0.307c0.67-0.12,1.334-0.271,2.002-0.405c10.694-2.089,21.134-5.438,31.151-9.759c10.032-4.304,19.606-9.652,28.719-15.68
				c9.114-6.032,17.764-12.765,25.944-20.027c16.33-14.589,30.766-31.197,44.455-48.321c13.69-17.149,26.608-34.928,40.14-52.261
				c6.771-8.662,13.649-17.251,20.888-25.545c3.609-4.154,7.301-8.24,11.108-12.216c3.788-3.994,7.679-7.893,11.68-11.677
				c3.983-3.802,8.091-7.475,12.307-11.019c4.199-3.564,8.544-6.957,12.989-10.211c8.886-6.482,18.231-12.483,28.353-16.921
				c10.085-4.507,20.762-7.513,31.521-9.772c10.77-2.264,21.633-3.93,32.427-5.935l0.137,0.728
				c-10.794,2.073-21.648,3.806-32.366,6.129c-10.709,2.317-21.287,5.369-31.251,9.895c-9.995,4.455-19.217,10.455-28.022,16.961
				c-4.398,3.261-8.697,6.66-12.851,10.23c-4.17,3.55-8.233,7.228-12.173,11.034c-15.815,15.189-29.9,32.07-43.337,49.414
				c-13.472,17.33-26.354,35.139-40.043,52.362c-13.692,17.199-28.154,33.918-44.587,48.662c-8.232,7.34-16.946,14.153-26.14,20.266
				c-9.193,6.108-18.864,11.539-29.019,15.922c-10.14,4.4-20.727,7.823-31.594,9.969c-0.678,0.138-1.353,0.293-2.034,0.416
				l-2.053,0.317l-4.106,0.634c-2.746,0.366-5.522,0.544-8.282,0.82c-2.771,0.053-5.545,0.211-8.314,0.174l-4.153-0.125
				l-2.077-0.063l-2.069-0.162c-11.049-0.786-21.95-2.768-32.688-5.23c-10.745-2.464-21.344-5.424-31.944-8.266
				c-10.603-2.861-21.213-5.511-31.975-7.554c-10.756-2.068-21.575-3.796-32.459-4.447c-5.438-0.311-10.891-0.421-16.314-0.061
				l-8.128,0.663l-8.065,1.227c-10.704,1.964-21.16,5.212-31.205,9.434c-10.05,4.222-19.696,9.405-28.922,15.251
				c-9.218,5.867-17.981,12.442-26.4,19.423c-8.414,6.992-16.461,14.43-24.202,22.178c-7.741,7.757-15.203,15.799-22.589,23.915
				c-14.777,16.229-29.179,32.854-44.566,48.601c-7.691,7.871-15.623,15.522-23.926,22.764c-2.102,1.78-4.154,3.619-6.297,5.351
				l-6.442,5.179c-4.356,3.384-8.847,6.592-13.446,9.635c-9.195,6.089-18.861,11.483-28.947,15.956
				c-10.07,4.493-20.544,8.125-31.311,10.548c-10.755,2.423-21.799,3.734-32.833,3.41c-11.026-0.294-22.018-2.157-32.468-5.681
				L-38.82,445.261z"/>
			<g style="clip-path:url(#SVGID_00000121238520491798788040000006901055479193406135_);">
				
					<linearGradient id="SVGID_00000091700664205464824880000002401460958560721282_" gradientUnits="userSpaceOnUse" x1="386.5211" y1="187.6197" x2="691.237" y2="187.6197">
					<stop  offset="0" style="stop-color:#C19966"/>
					<stop  offset="0.116" style="stop-color:#CD995B"/>
					<stop  offset="0.3329" style="stop-color:#DC994B"/>
					<stop  offset="0.5025" style="stop-color:#E29946"/>
					<stop  offset="0.5184" style="stop-color:#E5A354"/>
					<stop  offset="0.5664" style="stop-color:#ECBE78"/>
					<stop  offset="0.6112" style="stop-color:#F1D292"/>
					<stop  offset="0.6513" style="stop-color:#F4DEA2"/>
					<stop  offset="0.6825" style="stop-color:#F5E2A8"/>
					<stop  offset="0.87" style="stop-color:#E29946"/>
				</linearGradient>
				<path style="fill:url(#SVGID_00000091700664205464824880000002401460958560721282_);" d="M510.32,275.15
					c-29.325,0-57.444-9.787-84.72-19.279c-12.784-4.449-26.003-9.05-39.079-12.535l0.236-0.889
					c13.109,3.493,26.345,8.1,39.145,12.554c29.817,10.378,60.645,21.106,92.87,18.949c38.531-2.581,76.684-23.094,102.057-54.872
					c9.314-11.664,17.68-25.02,24.862-39.694c2.384-4.87,4.678-9.907,6.897-14.779c4.104-9.012,8.35-18.33,13.357-27.038
					c1.43-2.487,2.868-5.091,4.259-7.608c5.834-10.562,11.866-21.483,20.389-29.87l0.645,0.655
					c-8.427,8.293-14.426,19.155-20.229,29.659c-1.392,2.521-2.833,5.128-4.267,7.622c-4.985,8.671-9.221,17.969-13.316,26.961
					c-2.222,4.878-4.52,9.921-6.908,14.802c-7.212,14.735-15.613,28.146-24.97,39.864c-25.532,31.976-63.93,52.617-102.715,55.215
					C515.985,275.059,513.145,275.15,510.32,275.15z"/>
			</g>
		</g>
		
			<radialGradient id="SVGID_00000165199772421945746430000018315509927263292845_" cx="886.7841" cy="-4191.7627" r="32.1701" gradientTransform="matrix(2.5677 0.5458 -0.0294 0.1382 -1993.025 343.4854)" gradientUnits="userSpaceOnUse">
			<stop  offset="0" style="stop-color:#C19966"/>
			<stop  offset="0.0892" style="stop-color:#D3B27D"/>
			<stop  offset="0.2046" style="stop-color:#E6CC95"/>
			<stop  offset="0.3082" style="stop-color:#F1DCA3"/>
			<stop  offset="0.389" style="stop-color:#F5E2A8"/>
			<stop  offset="0.9944" style="stop-color:#E29946;stop-opacity:0"/>
		</radialGradient>
		<path style="opacity:0.3;fill:url(#SVGID_00000165199772421945746430000018315509927263292845_);" d="M489.817,265.75
			c-0.522,2.455-37.93-3.416-83.554-13.113s-82.186-19.549-81.664-22.005c0.522-2.455,37.93,3.416,83.554,13.113
			C453.777,253.442,490.339,263.294,489.817,265.75z"/>
		
			<radialGradient id="SVGID_00000083090519383245791060000013712209515007416754_" cx="451.0745" cy="-171.8477" r="60.642" gradientTransform="matrix(1.2673 0.6405 -0.1081 0.2137 -150.9522 103.8214)" gradientUnits="userSpaceOnUse">
			<stop  offset="0" style="stop-color:#C19966"/>
			<stop  offset="0.0892" style="stop-color:#D3B27D"/>
			<stop  offset="0.2046" style="stop-color:#E6CC95"/>
			<stop  offset="0.3082" style="stop-color:#F1DCA3"/>
			<stop  offset="0.389" style="stop-color:#F5E2A8"/>
			<stop  offset="0.9944" style="stop-color:#E29946;stop-opacity:0"/>
		</radialGradient>
		<path style="opacity:0.3;fill:url(#SVGID_00000083090519383245791060000013712209515007416754_);" d="M375.298,304.928
			c7.961-0.838,15.887,2.273,22.576,6.671c9.327,6.132,17.018,14.447,26.22,20.797c12.826,8.852,27.902,13.662,42.293,19.286
			c16.813,6.571,33.636,13.109,50.421,19.752c1.107,0.438,2.235,0.889,3.14,1.663c3.976,3.402,0.547,9.749-2.619,12.285
			c-2.284,1.829-5.185,3.12-7.956,3.97c-17.466,5.359-35.828,3.708-52.911-2.233c-34.761-12.088-68.031-39.033-87.281-70.335
			C365.913,311.471,369.595,305.529,375.298,304.928z"/>
	</g>
</g>
</svg>
